#N canvas 996 184 838 620 10;
#X obj 24 87 osc~ 366.1;
#X obj 25 197 *~;
#X obj 134 184 vline~;
#X obj 134 91 bng 15 250 50 0 empty empty empty 17 7 0 10 -262144 -1
-1;
#X obj 25 222 *~;
#X obj 134 206 *~;
#X obj 25 248 dac~;
#X obj 49 132 osc~ 0.6945;
#X obj 512 187 *~;
#X obj 621 174 vline~;
#X obj 621 81 bng 15 250 50 0 empty empty empty 17 7 0 10 -262144 -1
-1;
#X obj 512 212 *~;
#X obj 621 196 *~;
#X obj 512 238 dac~;
#X obj 511 77 osc~ 1658;
#X obj 536 122 osc~ 4.7847;
#X obj 264 200 *~;
#X obj 373 187 vline~;
#X obj 373 94 bng 15 250 50 0 empty empty empty 17 7 0 10 -262144 -1
-1;
#X obj 264 225 *~;
#X obj 373 209 *~;
#X obj 264 251 dac~;
#X obj 536 144 /~ 2;
#X obj 536 166 +~ 1;
#X obj 49 154 /~ 3;
#X obj 49 176 +~ 0.666;
#X obj 263 90 osc~ 882.9;
#X obj 288 135 osc~ 4.7847;
#X msg 621 152 0 \, 1 10 \, 0 1300 10;
#X obj 733 34 bng 15 250 50 0 empty empty empty 17 7 0 10 -262144 -1
-1;
#X obj 25 477 *~;
#X obj 134 464 vline~;
#X obj 134 371 bng 15 250 50 0 empty empty empty 17 7 0 10 -262144
-1 -1;
#X msg 100 391 0.75;
#X obj 25 502 *~;
#X obj 134 486 *~;
#X obj 25 528 dac~;
#X obj 512 467 *~;
#X obj 621 454 vline~;
#X obj 621 361 bng 15 250 50 0 empty empty empty 17 7 0 10 -262144
-1 -1;
#X obj 512 492 *~;
#X obj 621 476 *~;
#X obj 512 518 dac~;
#X obj 264 480 *~;
#X obj 373 467 vline~;
#X obj 373 374 bng 15 250 50 0 empty empty empty 17 7 0 10 -262144
-1 -1;
#X obj 264 505 *~;
#X obj 373 489 *~;
#X obj 264 531 dac~;
#X obj 288 437 /~ 2;
#X obj 288 459 +~ 1;
#X obj 536 424 /~ 2;
#X obj 536 446 +~ 1;
#X obj 49 434 /~ 3;
#X obj 49 456 +~ 0.666;
#X obj 779 289 bng 15 250 50 0 empty empty empty 17 7 0 10 -262144
-1 -1;
#X msg 373 165 0 \, 1 10 \, 0 2500 10;
#X obj 24 367 osc~ 3483;
#X obj 49 412 osc~ 4.3066;
#X obj 288 157 /~ 2.22;
#X msg 134 442 0 \, 1 10 \, 0 600 10;
#X obj 289 178 +~ 0.65;
#X obj 263 370 osc~ 3768;
#X obj 288 415 osc~ 6.1508;
#X msg 373 445 0 \, 1 10 \, 0 450 10;
#X msg 339 114 0.75;
#X obj 536 402 osc~ 8.6162;
#X msg 621 432 0 \, 1 10 \, 0 300 10;
#X msg 134 162 0 \, 1 10 \, 0 5000 10;
#X msg 339 394 0;
#X msg 583 382 0.85;
#X msg 100 111 0.85;
#X msg 587 101 0.1;
#X obj 263 112 *~ 0.6951;
#X obj 511 99 *~ 1;
#X obj 24 389 *~ 0.2724;
#X obj 263 392 *~ 0.417;
#X obj 511 379 *~ 0.3434;
#X obj 636 13 inlet;
#X obj 41 27 inlet;
#X obj 264 62 * 2.41;
#X obj 510 42 * 4.5288;
#X obj 27 336 * 9.5138;
#X obj 261 340 * 10.2923;
#X obj 511 357 osc~ 5082;
#X obj 508 326 * 13.88;
#X obj 24 109 *~ 0.5557;
#X obj 311 568 outlet~;
#X connect 0 0 86 0;
#X connect 1 0 4 0;
#X connect 2 0 5 0;
#X connect 2 0 5 1;
#X connect 3 0 71 0;
#X connect 3 0 68 0;
#X connect 4 0 6 0;
#X connect 4 0 6 1;
#X connect 4 0 87 0;
#X connect 5 0 4 1;
#X connect 7 0 24 0;
#X connect 8 0 11 0;
#X connect 9 0 12 0;
#X connect 9 0 12 1;
#X connect 10 0 72 0;
#X connect 10 0 28 0;
#X connect 11 0 13 0;
#X connect 11 0 13 1;
#X connect 11 0 87 0;
#X connect 12 0 11 1;
#X connect 14 0 74 0;
#X connect 15 0 22 0;
#X connect 16 0 19 0;
#X connect 17 0 20 0;
#X connect 17 0 20 1;
#X connect 18 0 65 0;
#X connect 18 0 56 0;
#X connect 19 0 21 0;
#X connect 19 0 21 1;
#X connect 19 0 87 0;
#X connect 20 0 19 1;
#X connect 22 0 23 0;
#X connect 23 0 8 1;
#X connect 24 0 25 0;
#X connect 25 0 1 1;
#X connect 26 0 73 0;
#X connect 27 0 59 0;
#X connect 28 0 9 0;
#X connect 29 0 3 0;
#X connect 29 0 10 0;
#X connect 29 0 18 0;
#X connect 29 0 55 0;
#X connect 30 0 34 0;
#X connect 31 0 35 0;
#X connect 31 0 35 1;
#X connect 32 0 33 0;
#X connect 32 0 60 0;
#X connect 33 0 58 1;
#X connect 34 0 36 0;
#X connect 34 0 36 1;
#X connect 34 0 87 0;
#X connect 35 0 34 1;
#X connect 37 0 40 0;
#X connect 38 0 41 0;
#X connect 38 0 41 1;
#X connect 39 0 70 0;
#X connect 39 0 67 0;
#X connect 40 0 42 0;
#X connect 40 0 42 1;
#X connect 40 0 87 0;
#X connect 41 0 40 1;
#X connect 43 0 46 0;
#X connect 44 0 47 0;
#X connect 44 0 47 1;
#X connect 45 0 69 0;
#X connect 45 0 64 0;
#X connect 46 0 48 0;
#X connect 46 0 48 1;
#X connect 46 0 87 0;
#X connect 47 0 46 1;
#X connect 49 0 50 0;
#X connect 50 0 43 1;
#X connect 51 0 52 0;
#X connect 52 0 37 1;
#X connect 53 0 54 0;
#X connect 54 0 30 1;
#X connect 55 0 39 0;
#X connect 55 0 45 0;
#X connect 55 0 32 0;
#X connect 56 0 17 0;
#X connect 57 0 75 0;
#X connect 58 0 53 0;
#X connect 59 0 61 0;
#X connect 60 0 31 0;
#X connect 61 0 16 1;
#X connect 62 0 76 0;
#X connect 63 0 49 0;
#X connect 64 0 44 0;
#X connect 65 0 27 1;
#X connect 66 0 51 0;
#X connect 67 0 38 0;
#X connect 68 0 2 0;
#X connect 69 0 63 1;
#X connect 70 0 66 1;
#X connect 71 0 7 1;
#X connect 72 0 15 1;
#X connect 73 0 16 0;
#X connect 74 0 8 0;
#X connect 75 0 30 0;
#X connect 76 0 43 0;
#X connect 77 0 37 0;
#X connect 78 0 29 0;
#X connect 79 0 0 0;
#X connect 79 0 80 0;
#X connect 79 0 81 0;
#X connect 79 0 82 0;
#X connect 79 0 83 0;
#X connect 79 0 85 0;
#X connect 80 0 26 0;
#X connect 81 0 14 0;
#X connect 82 0 57 0;
#X connect 83 0 62 0;
#X connect 84 0 77 0;
#X connect 85 0 84 0;
#X connect 86 0 1 0;
