#N canvas 1128 252 450 300 10;
#X obj 95 195 *~;
#X obj 96 222 dac~;
#X obj 95 173 *~;
#X obj 275 157 vline~;
#X obj 96 113 osc~ 367;
#X obj 275 179 *~;
#X obj 159 113 osc~ 0.65;
#X obj 275 43 bng 15 250 50 0 empty empty empty 17 7 0 10 -262144 -1
-1;
#X obj 158 92 vline~;
#X obj 158 135 /~ 4;
#X obj 158 157 +~ 0.5;
#X msg 158 70 0.65 \, 0.0005 0 4000;
#X msg 275 135 0 \, 1 200 \, 0 3000 4000;
#X connect 0 0 1 0;
#X connect 0 0 1 1;
#X connect 2 0 0 0;
#X connect 3 0 5 0;
#X connect 3 0 5 1;
#X connect 4 0 2 0;
#X connect 5 0 0 1;
#X connect 6 0 9 0;
#X connect 7 0 11 0;
#X connect 7 0 12 0;
#X connect 8 0 6 0;
#X connect 9 0 10 0;
#X connect 10 0 2 1;
#X connect 11 0 8 0;
#X connect 12 0 3 0;
