#N canvas 953 40 958 988 10;
#X obj 292 82 s q;
#X obj 202 642 s~ env;
#X obj 202 619 vline~;
#X msg 292 60 1000 1;
#X obj 18 648 dac~;
#X msg 1097 347;
#X obj 18 593 *~;
#X obj 34 569 r~ env;
#X obj 18 197 partial 495;
#X obj 194 163 loadbang;
#X msg 112 484 0.05;
#X text 270 12 load and send q to partials;
#X text 13 13 Set up partials of band passed noise according to Q factor.
Partials are arranged in B minor triads with 4 harmonic frequencies
above the fundamentals. Inside each partial is frequency modulation
according to the env. Outside \, there is also amplitude modulation
according to the env. Each partial also has a relative amplitude from
the message on the right. The whole output is normalized before going
to the dac., f 39;
#X obj 18 219 partial 587;
#X obj 18 241 partial 740;
#X obj 18 273 partial 988;
#X obj 18 295 partial 1174;
#X obj 18 317 partial 1480;
#X obj 18 349 partial 1482;
#X obj 18 371 partial 1761;
#X obj 18 393 partial 2220;
#X obj 18 425 partial 1976;
#X obj 18 447 partial 2348;
#X obj 18 469 partial 2960;
#X obj 18 501 partial 2470;
#X obj 18 523 partial 2935;
#X obj 18 545 partial 3700;
#X obj 292 35 loadbang;
#X obj 285 352 bng 15 250 50 0 empty empty empty 17 7 0 10 -262144
-1 -1;
#X obj 305 400 bng 15 250 50 0 empty empty empty 17 7 0 10 -262144
-1 -1;
#X obj 216 563 pack 0 0 0 0 0;
#X obj 325 445 bng 15 250 50 0 empty empty empty 17 7 0 10 -262144
-1 -1;
#X obj 346 493 bng 15 250 50 0 empty empty empty 17 7 0 10 -262144
-1 -1;
#X obj 298 194 bng 75 250 50 0 empty empty empty 17 7 0 10 -262144
-1 -1;
#X obj 298 278 t b b;
#X obj 256 420 random 400;
#X msg 202 596 0 \, \$1 \$2 0 \, \$4 \$3 \$2 \, 0 500 \$5;
#X obj 276 466 random 0.2;
#X obj 276 488 + 0.6;
#X obj 298 136 tgl 15 0 empty empty empty 17 7 0 10 -262144 -1 -1 0
1;
#X msg 112 180 1;
#X msg 112 256 0.1;
#X obj 298 156 metro 3500;
#X msg 112 408 0.05;
#X msg 112 332 0.3;
#X obj 18 615 *~ 20;
#X obj 297 513 random 2000;
#X obj 297 536 + 1000;
#X text 371 147 autoplay to show randomness;
#X text 384 217 bang to play sound;
#X text 360 377 randomize attack;
#X text 375 422 randomize decay;
#X text 384 471 randomize sustain level;
#X obj 236 395 + 200;
#X obj 216 326 random 0.3;
#X obj 216 348 + 0.7;
#X obj 236 373 random 600;
#X obj 256 442 + 300;
#X text 401 522 randomize sustain;
#X text 414 596 release is predetermined;
#X text 355 332 randomize attack level;
#X text 264 633 Sent to amplitude and frequency modulators;
#X connect 2 0 1 0;
#X connect 3 0 0 0;
#X connect 6 0 45 0;
#X connect 7 0 6 1;
#X connect 8 0 13 0;
#X connect 9 0 40 0;
#X connect 9 0 41 0;
#X connect 9 0 44 0;
#X connect 9 0 43 0;
#X connect 9 0 10 0;
#X connect 10 0 24 1;
#X connect 10 0 25 1;
#X connect 10 0 26 1;
#X connect 13 0 14 0;
#X connect 14 0 15 0;
#X connect 15 0 16 0;
#X connect 16 0 17 0;
#X connect 17 0 18 0;
#X connect 18 0 19 0;
#X connect 19 0 20 0;
#X connect 20 0 21 0;
#X connect 21 0 22 0;
#X connect 22 0 23 0;
#X connect 23 0 24 0;
#X connect 24 0 25 0;
#X connect 25 0 26 0;
#X connect 26 0 6 0;
#X connect 27 0 3 0;
#X connect 28 0 56 0;
#X connect 29 0 35 0;
#X connect 30 0 36 0;
#X connect 31 0 37 0;
#X connect 32 0 46 0;
#X connect 33 0 34 0;
#X connect 34 0 54 0;
#X connect 34 1 32 0;
#X connect 34 1 31 0;
#X connect 34 1 29 0;
#X connect 34 1 28 0;
#X connect 35 0 57 0;
#X connect 36 0 2 0;
#X connect 37 0 38 0;
#X connect 38 0 30 3;
#X connect 39 0 42 0;
#X connect 40 0 8 1;
#X connect 40 0 13 1;
#X connect 40 0 14 1;
#X connect 41 0 15 1;
#X connect 41 0 16 1;
#X connect 41 0 17 1;
#X connect 42 0 33 0;
#X connect 43 0 21 1;
#X connect 43 0 22 1;
#X connect 43 0 23 1;
#X connect 44 0 18 1;
#X connect 44 0 19 1;
#X connect 44 0 20 1;
#X connect 45 0 4 0;
#X connect 45 0 4 1;
#X connect 46 0 47 0;
#X connect 47 0 30 4;
#X connect 53 0 30 1;
#X connect 54 0 55 0;
#X connect 55 0 30 0;
#X connect 56 0 53 0;
#X connect 57 0 30 2;
