#N canvas 370 144 959 495 10;
#X obj 36 5 inlet;
#X msg 36 288 1 0 0 \, 0 \$1;
#X obj 36 310 vline~;
#X obj 36 332 *~;
#X obj 256 169 vline~;
#X obj 256 191 snapshot~;
#X obj 189 147 loadbang;
#X obj 189 170 metro 10;
#X obj 224 274 metro;
#X obj 185 250 loadbang;
#X obj 137 376 *~;
#X obj 494 394 pan;
#X msg 256 147 500 0 0 \, 0 \$1;
#X obj 494 416 dac~;
#X obj 36 69 + 1000;
#X obj 36 47 random 1000;
#X text 254 125 increase in frequency;
#X text 43 266 decrease volume;
#X obj 224 329 clunk;
#X obj 511 161 vline~;
#X obj 564 66 / 1000;
#X obj 511 115 pack f f;
#X obj 36 27 t b b;
#X msg 511 139 0.75 \, \$2 \$1;
#X text 270 272 by changing input to metro;
#X text 270 329 sound of hitting the table;
#X text 590 111 pan from 75% right to random percent left;
#X text 606 136 take length of sound to travel;
#X text 568 24 pan from right to left;
#X obj 564 88 -1;
#X obj 564 44 random 500;
#X connect 0 0 22 0;
#X connect 1 0 2 0;
#X connect 2 0 3 0;
#X connect 2 0 3 1;
#X connect 3 0 10 0;
#X connect 4 0 5 0;
#X connect 5 0 8 1;
#X connect 6 0 7 0;
#X connect 7 0 5 0;
#X connect 8 0 18 0;
#X connect 9 0 8 0;
#X connect 10 0 11 0;
#X connect 11 0 13 0;
#X connect 11 1 13 1;
#X connect 12 0 4 0;
#X connect 14 0 1 0;
#X connect 14 0 12 0;
#X connect 14 0 21 0;
#X connect 15 0 14 0;
#X connect 18 0 10 1;
#X connect 19 0 11 1;
#X connect 20 0 29 0;
#X connect 21 0 23 0;
#X connect 22 0 15 0;
#X connect 22 1 30 0;
#X connect 23 0 19 0;
#X connect 29 0 21 1;
#X connect 30 0 20 0;
