#N canvas 0 50 1257 981 10;
#X obj 327 123 noise~;
#X obj 327 225 lop~;
#X obj 327 327 hip~;
#X obj 327 559 *~;
#X obj 362 178 vline~;
#X obj 362 200 snapshot~;
#X obj 471 181 bng 15 250 50 0 empty empty empty 17 7 0 10 -262144
-1 -1;
#X obj 362 278 vline~;
#X obj 362 300 snapshot~;
#X obj 471 281 bng 15 250 50 0 empty empty empty 17 7 0 10 -262144
-1 -1;
#X obj 471 89 metro 1;
#X obj 718 528 vline~;
#X obj 718 65 bng 15 250 50 0 empty empty empty 17 7 0 10 -262144 -1
-1;
#X obj 718 149 bng 15 250 50 0 empty empty empty 17 7 0 10 -262144
-1 -1;
#X obj 718 275 bng 15 250 50 0 empty empty empty 17 7 0 10 -262144
-1 -1;
#X obj 718 462 / 100;
#X obj 197 465 vcf~;
#X msg 364 154 10000 \, 3000 25;
#X msg 362 256 1000 \, 7000 25;
#X obj 718 484 + 0.1;
#X obj 718 440 random 90;
#X obj 196 407 *~ 10;
#X obj 471 67 loadbang;
#X obj 244 408 loadbang;
#X msg 228 435 1500;
#X msg 275 435 100;
#X obj 317 465 vcf~;
#X obj 364 408 loadbang;
#X obj 437 465 vcf~;
#X obj 484 408 loadbang;
#X obj 557 465 vcf~;
#X obj 604 408 loadbang;
#X obj 718 44 inlet trigger;
#X msg 348 435 3000;
#X msg 635 435 150;
#X msg 515 435 150;
#X msg 395 435 150;
#X obj 316 407 *~ 5;
#X obj 436 407 *~ 3;
#X obj 556 407 *~ 2;
#X msg 588 435 5000;
#X msg 468 435 4000;
#X msg 717 508 \$1 \, 0.1 5 \, 0 30 5;
#X text 130 181 Noise statrs from 1-10khz and damps to the midrange
, f 22;
#X text 320 71 lop and hip need message rate vlines, f 20;
#X text 55 401 Resonance of dice can be approximated by bandpassed
noise. Each were tuned by ear to get an approximate clink, f 18;
#X text 829 475 Randomize amplitude;
#X obj 327 581 outlet~;
#X connect 0 0 1 0;
#X connect 1 0 2 0;
#X connect 2 0 21 0;
#X connect 2 0 37 0;
#X connect 2 0 38 0;
#X connect 2 0 39 0;
#X connect 3 0 47 0;
#X connect 4 0 5 0;
#X connect 5 0 1 1;
#X connect 6 0 5 0;
#X connect 6 0 9 0;
#X connect 7 0 8 0;
#X connect 8 0 2 1;
#X connect 9 0 8 0;
#X connect 10 0 6 0;
#X connect 11 0 3 1;
#X connect 12 0 13 0;
#X connect 12 0 17 0;
#X connect 13 0 14 0;
#X connect 13 0 18 0;
#X connect 14 0 20 0;
#X connect 15 0 19 0;
#X connect 16 0 3 0;
#X connect 17 0 4 0;
#X connect 18 0 7 0;
#X connect 19 0 42 0;
#X connect 20 0 15 0;
#X connect 21 0 16 0;
#X connect 22 0 10 0;
#X connect 23 0 24 0;
#X connect 23 0 25 0;
#X connect 24 0 16 1;
#X connect 25 0 16 2;
#X connect 26 0 3 0;
#X connect 27 0 33 0;
#X connect 27 0 36 0;
#X connect 28 0 3 0;
#X connect 29 0 41 0;
#X connect 29 0 35 0;
#X connect 30 0 3 0;
#X connect 31 0 40 0;
#X connect 31 0 34 0;
#X connect 32 0 12 0;
#X connect 33 0 26 1;
#X connect 34 0 30 2;
#X connect 35 0 28 2;
#X connect 36 0 26 2;
#X connect 37 0 26 0;
#X connect 38 0 28 0;
#X connect 39 0 30 0;
#X connect 40 0 30 1;
#X connect 41 0 28 1;
#X connect 42 0 11 0;
