#N canvas 150 108 1116 626 10;
#X obj 327 123 noise~;
#X obj 327 225 lop~;
#X obj 327 559 *~;
#X obj 362 178 vline~;
#X obj 362 200 snapshot~;
#X obj 471 181 bng 15 250 50 0 empty empty empty 17 7 0 10 -262144
-1 -1;
#X obj 471 89 metro 1;
#X obj 838 528 vline~;
#X obj 838 462 / 100;
#X obj 447 465 vcf~;
#X msg 364 154 10000 \, 3000 25;
#X obj 838 484 + 0.1;
#X obj 838 440 random 90;
#X obj 446 407 *~ 10;
#X obj 471 67 loadbang;
#X obj 494 408 loadbang;
#X msg 525 435 100;
#X obj 197 465 vcf~;
#X obj 244 408 loadbang;
#X obj 567 465 vcf~;
#X obj 614 408 loadbang;
#X obj 687 465 vcf~;
#X obj 734 408 loadbang;
#X obj 838 69 inlet trigger;
#X msg 765 435 150;
#X msg 645 435 150;
#X obj 196 407 *~ 5;
#X obj 566 407 *~ 3;
#X obj 686 407 *~ 2;
#X msg 718 435 5000;
#X msg 598 435 4000;
#X msg 837 508 \$1 \, 0.1 5 \, 0 30 5;
#X text 320 71 lop and hip need message rate vlines, f 20;
#X text 949 475 Randomize amplitude;
#X obj 327 581 outlet~;
#X obj 327 327 *~ 1;
#X msg 478 435 500;
#X msg 228 435 62.5;
#X msg 275 435 3;
#X obj 321 465 vcf~;
#X obj 368 408 loadbang;
#X msg 399 435 3;
#X msg 352 435 395;
#X obj 320 407 *~ 3;
#X text 113 226 high frequencies decay faster;
#X text 55 401 Resonance of dice can be approximated by bandpassed
noise. Each were tuned by ear to get an approximate clunk, f 18;
#X text 972 509 Shape clicks;
#X connect 0 0 1 0;
#X connect 1 0 35 0;
#X connect 2 0 34 0;
#X connect 3 0 4 0;
#X connect 4 0 1 1;
#X connect 5 0 4 0;
#X connect 6 0 5 0;
#X connect 7 0 2 1;
#X connect 8 0 11 0;
#X connect 9 0 2 0;
#X connect 10 0 3 0;
#X connect 11 0 31 0;
#X connect 12 0 8 0;
#X connect 13 0 9 0;
#X connect 14 0 6 0;
#X connect 15 0 36 0;
#X connect 15 0 16 0;
#X connect 16 0 9 2;
#X connect 17 0 2 0;
#X connect 18 0 37 0;
#X connect 18 0 38 0;
#X connect 19 0 2 0;
#X connect 20 0 30 0;
#X connect 20 0 25 0;
#X connect 21 0 2 0;
#X connect 22 0 29 0;
#X connect 22 0 24 0;
#X connect 23 0 12 0;
#X connect 23 0 10 0;
#X connect 24 0 21 2;
#X connect 25 0 19 2;
#X connect 26 0 17 0;
#X connect 27 0 19 0;
#X connect 28 0 21 0;
#X connect 29 0 21 1;
#X connect 30 0 19 1;
#X connect 31 0 7 0;
#X connect 35 0 13 0;
#X connect 35 0 26 0;
#X connect 35 0 27 0;
#X connect 35 0 28 0;
#X connect 35 0 43 0;
#X connect 36 0 9 1;
#X connect 37 0 17 1;
#X connect 38 0 17 2;
#X connect 39 0 2 0;
#X connect 40 0 42 0;
#X connect 40 0 41 0;
#X connect 41 0 39 2;
#X connect 42 0 39 1;
#X connect 43 0 39 0;
