#N canvas 0 50 450 300 10;
#X obj 19 16 inlet~;
#X obj 181 82 *~ 0.25;
#X text 234 81 scale to a quarter period;
#X obj 181 185 cos~;
#X obj 181 104 -~ 0.25;
#X obj 33 163 -~ 0.25;
#X obj 33 185 cos~;
#X obj 19 208 *~;
#X obj 167 208 *~;
#X text 233 102 center to -0.125;
#X obj 181 16 inlet~;
#X obj 180 260 outlet~ right;
#X obj 28 261 outlet~ left;
#X text 233 15 input -1 to 1;
#X connect 0 0 7 0;
#X connect 0 0 8 0;
#X connect 1 0 4 0;
#X connect 3 0 8 1;
#X connect 4 0 3 0;
#X connect 4 0 5 0;
#X connect 5 0 6 0;
#X connect 6 0 7 1;
#X connect 7 0 11 0;
#X connect 8 0 12 0;
#X connect 10 0 1 0;
