#N canvas 249 125 1258 606 10;
#X obj 254 274 snapshot~;
#X obj 308 252 metro 1;
#X obj 253 160 *~ 100;
#X obj 252 35 osc~ 3;
#X obj 133 339 metro 10;
#X obj 201 338 random 1;
#X obj 254 182 +~ 110;
#X obj 308 227 loadbang;
#X obj 133 416 clink;
#X obj 753 500 dac~;
#X msg 102 48 1;
#X obj 175 48 0;
#X obj 306 96 r num_dice;
#X obj 304 139 swap 150;
#X obj 304 161 -;
#X obj 306 118 * 4;
#X obj 753 478 pan;
#X text 277 337 Create random number within range of frequency modulation
to create series of closely packed clicks that become denser and more
spaced out periodically \, with the hand;
#X obj 102 26 inlet on;
#X obj 175 26 inlet off;
#X text 184 417 clink of dice on dice;
#X text 309 32 <- Signal to modulate frequency of clicks (this oscillator
in sync with movement of the hand);
#X text 388 140 <- Scale frequency modulation with number of dice;
#X text 381 250 <- Convert to message rate to be read in metro;
#X obj 770 164 +~ 0.75;
#X obj 770 142 /~ 5;
#X text 808 141 pan oscillating around 75% to the right;
#X connect 0 0 5 1;
#X connect 1 0 0 0;
#X connect 2 0 6 0;
#X connect 3 0 2 0;
#X connect 3 0 25 0;
#X connect 4 0 5 0;
#X connect 4 0 8 0;
#X connect 5 0 4 1;
#X connect 6 0 0 0;
#X connect 7 0 1 0;
#X connect 8 0 16 0;
#X connect 10 0 4 0;
#X connect 11 0 4 0;
#X connect 12 0 15 0;
#X connect 13 0 14 0;
#X connect 13 1 14 1;
#X connect 14 0 6 1;
#X connect 15 0 13 0;
#X connect 16 0 9 0;
#X connect 16 1 9 1;
#X connect 18 0 10 0;
#X connect 19 0 11 0;
#X connect 24 0 16 1;
#X connect 25 0 24 0;
