#N canvas 64 168 1504 698 10;
#X obj 112 15 inlet start;
#X obj 112 240 outlet end_slide;
#X obj 51 612 outlet~ sound;
#X obj 550 312 noise~;
#X obj 112 37 random 700;
#X obj 112 81 t b f;
#X obj 112 146 delay;
#X obj 1018 122 vline~;
#X obj 1002 580 *~;
#X obj 112 59 + 100;
#X obj 309 450 vcf~;
#X obj 356 393 loadbang;
#X obj 429 450 vcf~;
#X obj 476 393 loadbang;
#X obj 549 450 vcf~;
#X obj 596 393 loadbang;
#X msg 627 420 150;
#X msg 507 420 150;
#X msg 580 420 5000;
#X msg 460 420 4000;
#X obj 549 350 *~ 1;
#X msg 340 420 500;
#X obj 811 489 vline~;
#X obj 811 351 loadbang;
#X text 546 275 model sound as noise bandpassed at resonance of table
, f 32;
#X text 1025 71 ramp sound on or off;
#X obj 550 507 *~;
#X obj 811 426 / 1000;
#X msg 387 420 100;
#X obj 308 392 *~ 10;
#X obj 548 392 *~ 10;
#X obj 428 392 *~ 10;
#X msg 762 349 1;
#X obj 811 404 random 500;
#X obj 811 378 metro 10;
#X msg 811 464 \$1 10;
#X obj 688 562 *~ 0.001;
#X msg 1018 99 1 500 \, 0 10 \$1;
#X obj 144 111 + 10;
#X text 799 325 model stick slip;
#X connect 0 0 4 0;
#X connect 3 0 20 0;
#X connect 4 0 9 0;
#X connect 5 0 6 0;
#X connect 5 1 37 0;
#X connect 5 1 38 0;
#X connect 6 0 1 0;
#X connect 7 0 8 1;
#X connect 8 0 2 0;
#X connect 9 0 5 0;
#X connect 10 0 26 0;
#X connect 11 0 21 0;
#X connect 11 0 28 0;
#X connect 12 0 26 0;
#X connect 13 0 19 0;
#X connect 13 0 17 0;
#X connect 14 0 26 0;
#X connect 15 0 18 0;
#X connect 15 0 16 0;
#X connect 16 0 14 2;
#X connect 17 0 12 2;
#X connect 18 0 14 1;
#X connect 19 0 12 1;
#X connect 20 0 29 0;
#X connect 20 0 30 0;
#X connect 20 0 31 0;
#X connect 21 0 10 1;
#X connect 22 0 26 1;
#X connect 23 0 34 0;
#X connect 26 0 36 0;
#X connect 27 0 35 0;
#X connect 28 0 10 2;
#X connect 29 0 10 0;
#X connect 30 0 14 0;
#X connect 31 0 12 0;
#X connect 32 0 34 0;
#X connect 33 0 27 0;
#X connect 34 0 33 0;
#X connect 35 0 22 0;
#X connect 36 0 8 0;
#X connect 37 0 7 0;
#X connect 38 0 6 1;
