#N canvas 575 250 1083 300 10;
#X obj 304 2 inlet;
#X obj 440 5 r num_dice;
#X obj 36 90 >= 1;
#X obj 36 112 sel 1;
#X obj 36 136 random 500;
#X obj 36 158 t b f;
#X obj 36 180 delay;
#X obj 116 112 sel 1;
#X obj 116 136 random 500;
#X obj 116 158 t b f;
#X obj 116 180 delay;
#X obj 196 112 sel 1;
#X obj 196 136 random 500;
#X obj 196 158 t b f;
#X obj 196 180 delay;
#X obj 276 112 sel 1;
#X obj 276 136 random 500;
#X obj 276 158 t b f;
#X obj 276 180 delay;
#X obj 356 112 sel 1;
#X obj 356 136 random 500;
#X obj 356 158 t b f;
#X obj 356 180 delay;
#X obj 436 112 sel 1;
#X obj 436 136 random 500;
#X obj 436 158 t b f;
#X obj 436 180 delay;
#X obj 516 112 sel 1;
#X obj 516 136 random 500;
#X obj 516 158 t b f;
#X obj 516 180 delay;
#X obj 596 112 sel 1;
#X obj 596 136 random 500;
#X obj 596 158 t b f;
#X obj 596 180 delay;
#X obj 676 112 sel 1;
#X obj 676 136 random 500;
#X obj 676 158 t b f;
#X obj 676 180 delay;
#X obj 756 112 sel 1;
#X obj 756 136 random 500;
#X obj 756 158 t b f;
#X obj 756 180 delay;
#X obj 116 90 >= 2;
#X obj 196 90 >= 3;
#X obj 276 90 >= 4;
#X obj 356 90 >= 5;
#X obj 436 90 >= 6;
#X obj 516 90 >= 7;
#X obj 596 90 >= 8;
#X obj 676 90 >= 9;
#X obj 756 90 >= 10;
#X obj 402 30 i;
#X obj 436 204 bounce;
#X text 534 34 offset each voice by a random interval of time to first
hitting the table;
#X text 532 4 setup polyphony based on how many dice they are;
#X obj 36 204 bounce;
#X obj 356 204 bounce;
#X obj 116 204 bounce;
#X obj 196 204 bounce;
#X obj 276 204 bounce;
#X obj 516 204 bounce;
#X obj 596 204 bounce;
#X obj 676 204 bounce;
#X obj 756 204 bounce;
#X connect 0 0 52 0;
#X connect 1 0 52 1;
#X connect 2 0 3 0;
#X connect 3 0 4 0;
#X connect 4 0 5 0;
#X connect 5 0 6 0;
#X connect 5 1 6 1;
#X connect 6 0 56 0;
#X connect 7 0 8 0;
#X connect 8 0 9 0;
#X connect 9 0 10 0;
#X connect 9 1 10 1;
#X connect 10 0 58 0;
#X connect 11 0 12 0;
#X connect 12 0 13 0;
#X connect 13 0 14 0;
#X connect 13 1 14 1;
#X connect 14 0 59 0;
#X connect 15 0 16 0;
#X connect 16 0 17 0;
#X connect 17 0 18 0;
#X connect 17 1 18 1;
#X connect 18 0 60 0;
#X connect 19 0 20 0;
#X connect 20 0 21 0;
#X connect 21 0 22 0;
#X connect 21 1 22 1;
#X connect 22 0 57 0;
#X connect 23 0 24 0;
#X connect 24 0 25 0;
#X connect 25 0 26 0;
#X connect 25 1 26 1;
#X connect 26 0 53 0;
#X connect 27 0 28 0;
#X connect 28 0 29 0;
#X connect 29 0 30 0;
#X connect 29 1 30 1;
#X connect 30 0 61 0;
#X connect 31 0 32 0;
#X connect 32 0 33 0;
#X connect 33 0 34 0;
#X connect 33 1 34 1;
#X connect 34 0 62 0;
#X connect 35 0 36 0;
#X connect 36 0 37 0;
#X connect 37 0 38 0;
#X connect 37 1 38 1;
#X connect 38 0 63 0;
#X connect 39 0 40 0;
#X connect 40 0 41 0;
#X connect 41 0 42 0;
#X connect 41 1 42 1;
#X connect 42 0 64 0;
#X connect 43 0 7 0;
#X connect 44 0 11 0;
#X connect 45 0 15 0;
#X connect 46 0 19 0;
#X connect 47 0 23 0;
#X connect 48 0 27 0;
#X connect 49 0 31 0;
#X connect 50 0 35 0;
#X connect 51 0 39 0;
#X connect 52 0 2 0;
#X connect 52 0 43 0;
#X connect 52 0 44 0;
#X connect 52 0 45 0;
#X connect 52 0 46 0;
#X connect 52 0 47 0;
#X connect 52 0 48 0;
#X connect 52 0 49 0;
#X connect 52 0 50 0;
#X connect 52 0 51 0;
