#N canvas 1163 512 580 478 10;
#X obj 436 79 osc~ 1;
#X obj 338 325 *~;
#X obj 343 419 dac~;
#X obj 347 377 *~;
#X obj 312 15 inlet;
#X obj 20 246 *~;
#X msg 43 53 1;
#X msg 53 123 0;
#X obj 56 90 del 5000;
#X obj 114 247 *~;
#X obj 209 246 *~;
#X msg 137 55 0;
#X msg 232 53 0;
#X obj 243 168 vline~;
#X obj 144 173 vline~;
#X msg 147 124 1 2500;
#X msg 239 121 1 2500;
#X obj 490 38 vline~;
#X obj 435 37 vline~;
#X obj 20 10 osc~ \$1;
#X obj 209 13 osc~ \$3;
#X obj 112 15 osc~ \$2;
#X obj 436 58 *~ \$4;
#X obj 436 101 /~ \$5;
#X obj 434 123 +~ \$6;
#X obj 372 17 inlet;
#X obj 329 54 unpack f f;
#X obj 245 90 del;
#X obj 151 93 del;
#X obj 435 15 inlet;
#X obj 490 16 inlet;
#X obj 405 423 throw~ audio;
#X connect 0 0 23 0;
#X connect 1 0 3 0;
#X connect 3 0 2 0;
#X connect 3 0 2 1;
#X connect 3 0 31 0;
#X connect 4 0 6 0;
#X connect 4 0 11 0;
#X connect 4 0 12 0;
#X connect 4 0 27 0;
#X connect 4 0 28 0;
#X connect 5 0 1 0;
#X connect 6 0 5 1;
#X connect 7 0 5 1;
#X connect 8 0 7 0;
#X connect 9 0 1 0;
#X connect 10 0 1 0;
#X connect 11 0 9 1;
#X connect 12 0 10 1;
#X connect 13 0 10 1;
#X connect 14 0 9 1;
#X connect 15 0 14 0;
#X connect 16 0 13 0;
#X connect 17 0 3 1;
#X connect 18 0 22 0;
#X connect 19 0 5 0;
#X connect 20 0 10 0;
#X connect 21 0 9 0;
#X connect 22 0 0 0;
#X connect 23 0 24 0;
#X connect 24 0 1 1;
#X connect 25 0 26 0;
#X connect 26 0 28 1;
#X connect 26 1 27 1;
#X connect 27 0 16 0;
#X connect 28 0 15 0;
#X connect 29 0 18 0;
#X connect 30 0 17 0;
