#N canvas 0 50 910 496 10;
#X obj 100 59 noise~;
#X obj 275 387 dac~;
#X obj 279 353 *~ 1;
#X obj 321 91 vline~;
#X obj 216 117 *~, f 4;
#X obj 192 245 noise~;
#X obj 322 127 *~;
#X obj 241 301 *~;
#X obj 101 84 bp~ 1000 10;
#X msg 323 62 0 \, 1 1 0 \, 0.5 20 1 \, 0 200 60;
#X text 326 211 From mixer;
#X text 402 28 Start note and create ADSR;
#X text 29 177 Create noise sources;
#X obj 359 387 throw~ audio;
#X obj 373 229 inlet;
#X obj 320 30 inlet;
#X obj 193 272 *~ 25;
#X connect 0 0 8 0;
#X connect 2 0 1 0;
#X connect 2 0 1 1;
#X connect 2 0 13 0;
#X connect 3 0 6 0;
#X connect 3 0 6 1;
#X connect 4 0 7 1;
#X connect 5 0 16 0;
#X connect 6 0 4 1;
#X connect 7 0 2 0;
#X connect 8 0 4 0;
#X connect 9 0 3 0;
#X connect 14 0 2 1;
#X connect 15 0 9 0;
#X connect 16 0 7 0;
